<?xml version="1.0" encoding="UTF-8" standalone="no"?>
<svg
   xmlns:dc="http://purl.org/dc/elements/1.1/"
   xmlns:cc="http://creativecommons.org/ns#"
   xmlns:rdf="http://www.w3.org/1999/02/22-rdf-syntax-ns#"
   xmlns:svg="http://www.w3.org/2000/svg"
   xmlns="http://www.w3.org/2000/svg"
   xmlns:sodipodi="http://sodipodi.sourceforge.net/DTD/sodipodi-0.dtd"
   xmlns:inkscape="http://www.inkscape.org/namespaces/inkscape"
   width="720pt"
   height="331pt"
   viewBox="0 0 720 331"
   version="1.1"
   id="svg54678"
   inkscape:version="0.91 r13725"
   sodipodi:docname="Sigmoid_function.svg">
  <sodipodi:namedview
     pagecolor="#ffffff"
     bordercolor="#666666"
     borderopacity="1"
     objecttolerance="10"
     gridtolerance="10"
     guidetolerance="10"
     inkscape:pageopacity="0"
     inkscape:pageshadow="2"
     inkscape:window-width="1267"
     inkscape:window-height="781"
     id="namedview54806"
     showgrid="false"
     inkscape:zoom="0.30444444"
     inkscape:cx="349.60897"
     inkscape:cy="273.05189"
     inkscape:window-x="0"
     inkscape:window-y="0"
     inkscape:window-maximized="0"
     inkscape:current-layer="g55509" />
  <metadata
     id="metadata54808">
    <rdf:RDF>
      <cc:Work
         rdf:about="">
        <dc:format>image/svg+xml</dc:format>
        <dc:type
           rdf:resource="http://purl.org/dc/dcmitype/StillImage" />
      </cc:Work>
    </rdf:RDF>
  </metadata>
  <defs
     id="defs54680">
    <clipPath
       id="clip1">
      <path
         id="path54683"
         d="M 23 3.824219 L 697 3.824219 L 697 321.457031 L 23 321.457031 Z M 23 3.824219 " />
    </clipPath>
  </defs>
  <g
     id="surface1">
    <path
       id="path54686"
       transform="matrix(1.744186,0,0,-1.745781,63.231977,294.982801)"
       d="M 0.001375 -15.164695 L 0.001375 166.778451 M 42.575854 -15.164695 L 42.575854 166.778451 M 85.150333 -15.164695 L 85.150333 166.778451 M 127.722573 -15.164695 L 127.722573 166.778451 M 212.871531 -15.164695 L 212.871531 166.778451 M 255.44601 -15.164695 L 255.44601 166.778451 M 298.024969 -15.164695 L 298.024969 166.778451 M 340.599448 -15.164695 L 340.599448 166.778451 "
       style="fill:none;stroke-width:0.3985;stroke-linecap:butt;stroke-linejoin:miter;stroke:rgb(85.098039%,85.098039%,85.098039%);stroke-opacity:1;stroke-dasharray:2.98883,2.98883;stroke-miterlimit:10;" />
    <path
       id="path54688"
       transform="matrix(1.744186,0,0,-1.745781,63.231977,294.982801)"
       d="M -34.062688 30.324448 L 374.656792 30.324448 M -34.062688 60.649797 L 374.656792 60.649797 M -34.062688 90.968434 L 374.656792 90.968434 M -34.062688 121.293783 L 374.656792 121.293783 M -34.062688 151.616895 L 374.656792 151.616895 "
       style="fill:none;stroke-width:0.3985;stroke-linecap:butt;stroke-linejoin:miter;stroke:rgb(85.098039%,85.098039%,85.098039%);stroke-opacity:1;stroke-dasharray:2.98883,2.98883;stroke-miterlimit:10;" />
    <path
       id="path54690"
       transform="matrix(1.744186,0,0,-1.745781,63.231977,294.982801)"
       d="M 0.001375 -4.254461 L 0.001375 0.00133573 M 42.575854 -4.254461 L 42.575854 0.00133573 M 85.150333 -4.254461 L 85.150333 0.00133573 M 127.722573 -4.254461 L 127.722573 0.00133573 M 212.871531 -4.254461 L 212.871531 0.00133573 M 255.44601 -4.254461 L 255.44601 0.00133573 M 298.024969 -4.254461 L 298.024969 0.00133573 M 340.599448 -4.254461 L 340.599448 0.00133573 "
       style="fill:none;stroke-width:0.19925;stroke-linecap:butt;stroke-linejoin:miter;stroke:rgb(50.196078%,50.196078%,50.196078%);stroke-opacity:1;stroke-miterlimit:10;" />
    <path
       id="path54692"
       transform="matrix(1.744186,0,0,-1.745781,63.231977,294.982801)"
       d="M 166.048563 30.324448 L 170.297052 30.324448 M 166.048563 60.649797 L 170.297052 60.649797 M 166.048563 90.968434 L 170.297052 90.968434 M 166.048563 121.293783 L 170.297052 121.293783 M 166.048563 151.616895 L 170.297052 151.616895 "
       style="fill:none;stroke-width:0.19925;stroke-linecap:butt;stroke-linejoin:miter;stroke:rgb(50.196078%,50.196078%,50.196078%);stroke-opacity:1;stroke-miterlimit:10;" />
    <path
       id="path54694"
       transform="matrix(1.744186,0,0,-1.745781,63.231977,294.982801)"
       d="M -34.062688 0.00133573 L 372.665802 0.00133573 "
       style="fill:none;stroke-width:0.3985;stroke-linecap:butt;stroke-linejoin:miter;stroke:rgb(0%,0%,0%);stroke-opacity:1;stroke-miterlimit:10;" />
    <path
       id="path54696"
       d="M 716.703125 294.980469 L 711.144531 292.199219 L 713.230469 294.980469 L 711.144531 297.765625 "
       style=" stroke:none;fill-rule:nonzero;fill:rgb(0%,0%,0%);fill-opacity:1;" />
    <path
       id="path54698"
       transform="matrix(1.744186,0,0,-1.745781,63.231977,294.982801)"
       d="M 170.297052 -15.164695 L 170.297052 164.784804 "
       style="fill:none;stroke-width:0.3985;stroke-linecap:butt;stroke-linejoin:miter;stroke:rgb(0%,0%,0%);stroke-opacity:1;stroke-miterlimit:10;" />
    <path
       id="path54700"
       d="M 360.261719 3.824219 L 357.484375 9.390625 L 360.261719 7.304688 L 363.042969 9.390625 "
       style=" stroke:none;fill-rule:nonzero;fill:rgb(0%,0%,0%);fill-opacity:1;" />
    <path
       id="path54702"
       d="M 63.578125 315.75 C 63.875 315.75 64.203125 315.75 64.203125 315.394531 C 64.203125 315.070312 63.875 315.070312 63.578125 315.070312 L 54.175781 315.070312 C 53.875 315.070312 53.574219 315.070312 53.574219 315.394531 C 53.574219 315.75 53.875 315.75 54.175781 315.75 Z M 63.578125 315.75 "
       style=" stroke:none;fill-rule:nonzero;fill:rgb(0%,0%,0%);fill-opacity:1;" />
    <path
       id="path54704"
       d="M 68.480469 311.796875 C 67.691406 311.277344 67.609375 310.703125 67.609375 310.40625 C 67.609375 309.339844 68.753906 308.605469 69.980469 308.605469 C 71.234375 308.605469 72.351562 309.503906 72.351562 310.757812 C 72.351562 311.769531 71.667969 312.585938 70.632812 313.1875 Z M 71.015625 313.460938 C 72.269531 312.804688 73.113281 311.90625 73.113281 310.757812 C 73.113281 309.148438 71.585938 308.167969 70.007812 308.167969 C 68.261719 308.167969 66.84375 309.449219 66.84375 311.085938 C 66.84375 311.386719 66.871094 312.175781 67.609375 312.996094 C 67.800781 313.1875 68.453125 313.625 68.890625 313.921875 C 67.878906 314.441406 66.382812 315.394531 66.382812 317.140625 C 66.382812 318.96875 68.152344 320.140625 69.980469 320.140625 C 71.941406 320.140625 73.605469 318.695312 73.605469 316.84375 C 73.605469 316.214844 73.414062 315.421875 72.730469 314.6875 C 72.40625 314.332031 72.132812 314.167969 71.015625 313.460938 Z M 69.269531 314.195312 L 71.421875 315.558594 C 71.914062 315.886719 72.730469 316.40625 72.730469 317.46875 C 72.730469 318.75 71.421875 319.652344 70.007812 319.652344 C 68.507812 319.652344 67.253906 318.585938 67.253906 317.140625 C 67.253906 316.132812 67.800781 315.015625 69.269531 314.195312 Z M 69.269531 314.195312 "
       style=" stroke:none;fill-rule:nonzero;fill:rgb(0%,0%,0%);fill-opacity:1;" />
    <path
       id="path54706"
       d="M 137.832031 315.75 C 138.132812 315.75 138.460938 315.75 138.460938 315.394531 C 138.460938 315.070312 138.132812 315.070312 137.832031 315.070312 L 128.429688 315.070312 C 128.132812 315.070312 127.832031 315.070312 127.832031 315.394531 C 127.832031 315.75 128.132812 315.75 128.429688 315.75 Z M 137.832031 315.75 "
       style=" stroke:none;fill-rule:nonzero;fill:rgb(0%,0%,0%);fill-opacity:1;" />
    <path
       id="path54708"
       d="M 142.191406 314.058594 L 142.191406 313.625 C 142.191406 309.230469 144.34375 308.605469 145.246094 308.605469 C 145.652344 308.605469 146.390625 308.714844 146.769531 309.3125 C 146.5 309.3125 145.816406 309.3125 145.816406 310.078125 C 145.816406 310.621094 146.226562 310.894531 146.605469 310.894531 C 146.878906 310.894531 147.425781 310.730469 147.425781 310.050781 C 147.425781 309.011719 146.660156 308.167969 145.21875 308.167969 C 142.984375 308.167969 140.640625 310.40625 140.640625 314.25 C 140.640625 318.914062 142.65625 320.140625 144.261719 320.140625 C 146.199219 320.140625 147.859375 318.507812 147.859375 316.214844 C 147.859375 314.003906 146.308594 312.339844 144.371094 312.339844 C 143.199219 312.339844 142.546875 313.214844 142.191406 314.058594 Z M 144.261719 319.652344 C 143.171875 319.652344 142.65625 318.613281 142.546875 318.34375 C 142.21875 317.523438 142.21875 316.132812 142.21875 315.832031 C 142.21875 314.46875 142.792969 312.722656 144.34375 312.722656 C 144.644531 312.722656 145.433594 312.722656 145.980469 313.8125 C 146.28125 314.441406 146.28125 315.339844 146.28125 316.1875 C 146.28125 317.03125 146.28125 317.90625 145.980469 318.53125 C 145.460938 319.570312 144.671875 319.652344 144.261719 319.652344 Z M 144.261719 319.652344 "
       style=" stroke:none;fill-rule:nonzero;fill:rgb(0%,0%,0%);fill-opacity:1;" />
    <path
       id="path54710"
       d="M 212.089844 315.75 C 212.390625 315.75 212.71875 315.75 212.71875 315.394531 C 212.71875 315.070312 212.390625 315.070312 212.089844 315.070312 L 202.6875 315.070312 C 202.386719 315.070312 202.089844 315.070312 202.089844 315.394531 C 202.089844 315.75 202.386719 315.75 202.6875 315.75 Z M 212.089844 315.75 "
       style=" stroke:none;fill-rule:nonzero;fill:rgb(0%,0%,0%);fill-opacity:1;" />
    <path
       id="path54712"
       d="M 219.285156 316.898438 L 219.285156 318.398438 C 219.285156 319.023438 219.230469 319.214844 217.949219 319.214844 L 217.59375 319.214844 L 217.59375 319.761719 C 218.300781 319.707031 219.203125 319.707031 219.9375 319.707031 C 220.671875 319.707031 221.574219 319.707031 222.308594 319.761719 L 222.308594 319.214844 L 221.925781 319.214844 C 220.644531 319.214844 220.617188 319.023438 220.617188 318.398438 L 220.617188 316.898438 L 222.335938 316.898438 L 222.335938 316.351562 L 220.617188 316.351562 L 220.617188 308.441406 C 220.617188 308.085938 220.617188 307.976562 220.320312 307.976562 C 220.183594 307.976562 220.128906 307.976562 219.992188 308.195312 L 214.652344 316.351562 L 214.652344 316.898438 Z M 219.363281 316.351562 L 215.140625 316.351562 L 219.363281 309.859375 Z M 219.363281 316.351562 "
       style=" stroke:none;fill-rule:nonzero;fill:rgb(0%,0%,0%);fill-opacity:1;" />
    <path
       id="path54714"
       d="M 286.347656 315.75 C 286.648438 315.75 286.972656 315.75 286.972656 315.394531 C 286.972656 315.070312 286.648438 315.070312 286.347656 315.070312 L 276.945312 315.070312 C 276.644531 315.070312 276.34375 315.070312 276.34375 315.394531 C 276.34375 315.75 276.644531 315.75 276.945312 315.75 Z M 286.347656 315.75 "
       style=" stroke:none;fill-rule:nonzero;fill:rgb(0%,0%,0%);fill-opacity:1;" />
    <path
       id="path54716"
       d="M 290.625 318.425781 L 292.476562 316.625 C 295.175781 314.222656 296.210938 313.296875 296.210938 311.550781 C 296.210938 309.558594 294.65625 308.167969 292.53125 308.167969 C 290.570312 308.167969 289.289062 309.777344 289.289062 311.332031 C 289.289062 312.285156 290.160156 312.285156 290.214844 312.285156 C 290.515625 312.285156 291.113281 312.09375 291.113281 311.359375 C 291.113281 310.921875 290.789062 310.457031 290.1875 310.457031 C 290.050781 310.457031 290.023438 310.457031 289.96875 310.484375 C 290.351562 309.339844 291.304688 308.714844 292.3125 308.714844 C 293.894531 308.714844 294.628906 310.132812 294.628906 311.550781 C 294.628906 312.941406 293.785156 314.304688 292.804688 315.394531 L 289.480469 319.105469 C 289.289062 319.296875 289.289062 319.351562 289.289062 319.761719 L 295.746094 319.761719 L 296.210938 316.734375 L 295.800781 316.734375 C 295.695312 317.25 295.585938 318.015625 295.394531 318.289062 C 295.285156 318.425781 294.140625 318.425781 293.757812 318.425781 Z M 290.625 318.425781 "
       style=" stroke:none;fill-rule:nonzero;fill:rgb(0%,0%,0%);fill-opacity:1;" />
    <path
       id="path54718"
       d="M 432.382812 318.425781 L 434.234375 316.625 C 436.933594 314.222656 437.96875 313.296875 437.96875 311.550781 C 437.96875 309.558594 436.414062 308.167969 434.289062 308.167969 C 432.328125 308.167969 431.046875 309.777344 431.046875 311.332031 C 431.046875 312.285156 431.917969 312.285156 431.972656 312.285156 C 432.273438 312.285156 432.871094 312.09375 432.871094 311.359375 C 432.871094 310.921875 432.542969 310.457031 431.945312 310.457031 C 431.808594 310.457031 431.78125 310.457031 431.726562 310.484375 C 432.109375 309.339844 433.0625 308.714844 434.070312 308.714844 C 435.652344 308.714844 436.386719 310.132812 436.386719 311.550781 C 436.386719 312.941406 435.542969 314.304688 434.5625 315.394531 L 431.238281 319.105469 C 431.046875 319.296875 431.046875 319.351562 431.046875 319.761719 L 437.503906 319.761719 L 437.96875 316.734375 L 437.558594 316.734375 C 437.449219 317.25 437.339844 318.015625 437.152344 318.289062 C 437.042969 318.425781 435.898438 318.425781 435.515625 318.425781 Z M 432.382812 318.425781 "
       style=" stroke:none;fill-rule:nonzero;fill:rgb(0%,0%,0%);fill-opacity:1;" />
    <path
       id="path54720"
       d="M 509.554688 316.898438 L 509.554688 318.398438 C 509.554688 319.023438 509.5 319.214844 508.21875 319.214844 L 507.863281 319.214844 L 507.863281 319.761719 C 508.574219 319.707031 509.472656 319.707031 510.207031 319.707031 C 510.945312 319.707031 511.84375 319.707031 512.578125 319.761719 L 512.578125 319.214844 L 512.199219 319.214844 C 510.917969 319.214844 510.890625 319.023438 510.890625 318.398438 L 510.890625 316.898438 L 512.605469 316.898438 L 512.605469 316.351562 L 510.890625 316.351562 L 510.890625 308.441406 C 510.890625 308.085938 510.890625 307.976562 510.589844 307.976562 C 510.453125 307.976562 510.398438 307.976562 510.261719 308.195312 L 504.921875 316.351562 L 504.921875 316.898438 Z M 509.636719 316.351562 L 505.410156 316.351562 L 509.636719 309.859375 Z M 509.636719 316.351562 "
       style=" stroke:none;fill-rule:nonzero;fill:rgb(0%,0%,0%);fill-opacity:1;" />
    <path
       id="path54722"
       d="M 580.976562 314.058594 L 580.976562 313.625 C 580.976562 309.230469 583.128906 308.605469 584.03125 308.605469 C 584.4375 308.605469 585.175781 308.714844 585.554688 309.3125 C 585.28125 309.3125 584.601562 309.3125 584.601562 310.078125 C 584.601562 310.621094 585.011719 310.894531 585.390625 310.894531 C 585.664062 310.894531 586.210938 310.730469 586.210938 310.050781 C 586.210938 309.011719 585.445312 308.167969 584.003906 308.167969 C 581.765625 308.167969 579.421875 310.40625 579.421875 314.25 C 579.421875 318.914062 581.441406 320.140625 583.046875 320.140625 C 584.984375 320.140625 586.644531 318.507812 586.644531 316.214844 C 586.644531 314.003906 585.09375 312.339844 583.15625 312.339844 C 581.984375 312.339844 581.332031 313.214844 580.976562 314.058594 Z M 583.046875 319.652344 C 581.957031 319.652344 581.441406 318.613281 581.332031 318.34375 C 581.003906 317.523438 581.003906 316.132812 581.003906 315.832031 C 581.003906 314.46875 581.578125 312.722656 583.128906 312.722656 C 583.429688 312.722656 584.21875 312.722656 584.765625 313.8125 C 585.066406 314.441406 585.066406 315.339844 585.066406 316.1875 C 585.066406 317.03125 585.066406 317.90625 584.765625 318.53125 C 584.246094 319.570312 583.457031 319.652344 583.046875 319.652344 Z M 583.046875 319.652344 "
       style=" stroke:none;fill-rule:nonzero;fill:rgb(0%,0%,0%);fill-opacity:1;" />
    <path
       id="path54724"
       d="M 655.777344 311.796875 C 654.988281 311.277344 654.90625 310.703125 654.90625 310.40625 C 654.90625 309.339844 656.050781 308.605469 657.277344 308.605469 C 658.53125 308.605469 659.648438 309.503906 659.648438 310.757812 C 659.648438 311.769531 658.96875 312.585938 657.933594 313.1875 Z M 658.3125 313.460938 C 659.566406 312.804688 660.410156 311.90625 660.410156 310.757812 C 660.410156 309.148438 658.886719 308.167969 657.304688 308.167969 C 655.5625 308.167969 654.144531 309.449219 654.144531 311.085938 C 654.144531 311.386719 654.171875 312.175781 654.90625 312.996094 C 655.097656 313.1875 655.75 313.625 656.1875 313.921875 C 655.179688 314.441406 653.679688 315.394531 653.679688 317.140625 C 653.679688 318.96875 655.453125 320.140625 657.277344 320.140625 C 659.238281 320.140625 660.902344 318.695312 660.902344 316.84375 C 660.902344 316.214844 660.710938 315.421875 660.03125 314.6875 C 659.703125 314.332031 659.429688 314.167969 658.3125 313.460938 Z M 656.570312 314.195312 L 658.722656 315.558594 C 659.214844 315.886719 660.03125 316.40625 660.03125 317.46875 C 660.03125 318.75 658.722656 319.652344 657.304688 319.652344 C 655.804688 319.652344 654.550781 318.585938 654.550781 317.140625 C 654.550781 316.132812 655.097656 315.015625 656.570312 314.195312 Z M 656.570312 314.195312 "
       style=" stroke:none;fill-rule:nonzero;fill:rgb(0%,0%,0%);fill-opacity:1;" />
    <path
       id="path54726"
       d="M 332.488281 242.085938 C 332.488281 240.695312 332.40625 239.304688 331.804688 238.023438 C 331.015625 236.332031 329.570312 236.058594 328.863281 236.058594 C 327.800781 236.058594 326.546875 236.523438 325.808594 238.132812 C 325.265625 239.332031 325.183594 240.695312 325.183594 242.085938 C 325.183594 243.394531 325.238281 244.949219 325.972656 246.289062 C 326.710938 247.679688 327.992188 248.03125 328.835938 248.03125 C 329.761719 248.03125 331.097656 247.679688 331.859375 246.015625 C 332.40625 244.8125 332.488281 243.449219 332.488281 242.085938 Z M 328.835938 247.652344 C 328.152344 247.652344 327.117188 247.214844 326.820312 245.550781 C 326.628906 244.515625 326.628906 242.90625 326.628906 241.867188 C 326.628906 240.75 326.628906 239.605469 326.765625 238.675781 C 327.089844 236.605469 328.398438 236.441406 328.835938 236.441406 C 329.40625 236.441406 330.550781 236.765625 330.878906 238.484375 C 331.070312 239.46875 331.070312 240.777344 331.070312 241.867188 C 331.070312 243.175781 331.070312 244.351562 330.878906 245.46875 C 330.605469 247.132812 329.625 247.652344 328.835938 247.652344 Z M 328.835938 247.652344 "
       style=" stroke:none;fill-rule:nonzero;fill:rgb(0%,0%,0%);fill-opacity:1;" />
    <path
       id="path54728"
       d="M 336.515625 246.722656 C 336.515625 246.234375 336.105469 245.796875 335.617188 245.796875 C 335.097656 245.796875 334.6875 246.234375 334.6875 246.722656 C 334.6875 247.242188 335.097656 247.652344 335.617188 247.652344 C 336.105469 247.652344 336.515625 247.242188 336.515625 246.722656 Z M 336.515625 246.722656 "
       style=" stroke:none;fill-rule:nonzero;fill:rgb(0%,0%,0%);fill-opacity:1;" />
    <path
       id="path54730"
       d="M 340.226562 246.316406 L 342.078125 244.515625 C 344.777344 242.113281 345.8125 241.1875 345.8125 239.441406 C 345.8125 237.449219 344.257812 236.058594 342.132812 236.058594 C 340.171875 236.058594 338.890625 237.667969 338.890625 239.222656 C 338.890625 240.175781 339.761719 240.175781 339.816406 240.175781 C 340.117188 240.175781 340.714844 239.984375 340.714844 239.25 C 340.714844 238.8125 340.390625 238.347656 339.789062 238.347656 C 339.652344 238.347656 339.625 238.347656 339.570312 238.375 C 339.953125 237.230469 340.90625 236.605469 341.914062 236.605469 C 343.496094 236.605469 344.230469 238.023438 344.230469 239.441406 C 344.230469 240.832031 343.386719 242.195312 342.40625 243.285156 L 339.082031 246.996094 C 338.890625 247.1875 338.890625 247.242188 338.890625 247.652344 L 345.347656 247.652344 L 345.8125 244.625 L 345.402344 244.625 C 345.292969 245.140625 345.183594 245.90625 344.996094 246.179688 C 344.886719 246.316406 343.742188 246.316406 343.359375 246.316406 Z M 340.226562 246.316406 "
       style=" stroke:none;fill-rule:nonzero;fill:rgb(0%,0%,0%);fill-opacity:1;" />
    <path
       id="path54732"
       d="M 332.488281 189.148438 C 332.488281 187.757812 332.40625 186.363281 331.804688 185.082031 C 331.015625 183.390625 329.570312 183.117188 328.863281 183.117188 C 327.800781 183.117188 326.546875 183.582031 325.808594 185.191406 C 325.265625 186.390625 325.183594 187.757812 325.183594 189.148438 C 325.183594 190.457031 325.238281 192.011719 325.972656 193.347656 C 326.710938 194.738281 327.992188 195.09375 328.835938 195.09375 C 329.761719 195.09375 331.097656 194.738281 331.859375 193.074219 C 332.40625 191.875 332.488281 190.511719 332.488281 189.148438 Z M 328.835938 194.710938 C 328.152344 194.710938 327.117188 194.277344 326.820312 192.613281 C 326.628906 191.574219 326.628906 189.964844 326.628906 188.929688 C 326.628906 187.8125 326.628906 186.664062 326.765625 185.738281 C 327.089844 183.664062 328.398438 183.5 328.835938 183.5 C 329.40625 183.5 330.550781 183.828125 330.878906 185.546875 C 331.070312 186.527344 331.070312 187.839844 331.070312 188.929688 C 331.070312 190.238281 331.070312 191.410156 330.878906 192.53125 C 330.605469 194.195312 329.625 194.710938 328.835938 194.710938 Z M 328.835938 194.710938 "
       style=" stroke:none;fill-rule:nonzero;fill:rgb(0%,0%,0%);fill-opacity:1;" />
    <path
       id="path54734"
       d="M 336.515625 193.785156 C 336.515625 193.292969 336.105469 192.855469 335.617188 192.855469 C 335.097656 192.855469 334.6875 193.292969 334.6875 193.785156 C 334.6875 194.304688 335.097656 194.710938 335.617188 194.710938 C 336.105469 194.710938 336.515625 194.304688 336.515625 193.785156 Z M 336.515625 193.785156 "
       style=" stroke:none;fill-rule:nonzero;fill:rgb(0%,0%,0%);fill-opacity:1;" />
    <path
       id="path54736"
       d="M 343.140625 191.847656 L 343.140625 193.347656 C 343.140625 193.976562 343.085938 194.167969 341.804688 194.167969 L 341.453125 194.167969 L 341.453125 194.710938 C 342.160156 194.65625 343.058594 194.65625 343.796875 194.65625 C 344.53125 194.65625 345.429688 194.65625 346.167969 194.710938 L 346.167969 194.167969 L 345.785156 194.167969 C 344.503906 194.167969 344.476562 193.976562 344.476562 193.347656 L 344.476562 191.847656 L 346.195312 191.847656 L 346.195312 191.300781 L 344.476562 191.300781 L 344.476562 183.390625 C 344.476562 183.039062 344.476562 182.929688 344.175781 182.929688 C 344.039062 182.929688 343.988281 182.929688 343.851562 183.144531 L 338.507812 191.300781 L 338.507812 191.847656 Z M 343.222656 191.300781 L 339 191.300781 L 343.222656 184.808594 Z M 343.222656 191.300781 "
       style=" stroke:none;fill-rule:nonzero;fill:rgb(0%,0%,0%);fill-opacity:1;" />
    <path
       id="path54738"
       d="M 332.488281 136.210938 C 332.488281 134.820312 332.40625 133.429688 331.804688 132.144531 C 331.015625 130.453125 329.570312 130.183594 328.863281 130.183594 C 327.800781 130.183594 326.546875 130.644531 325.808594 132.253906 C 325.265625 133.457031 325.183594 134.820312 325.183594 136.210938 C 325.183594 137.519531 325.238281 139.074219 325.972656 140.410156 C 326.710938 141.800781 327.992188 142.15625 328.835938 142.15625 C 329.761719 142.15625 331.097656 141.800781 331.859375 140.136719 C 332.40625 138.9375 332.488281 137.574219 332.488281 136.210938 Z M 328.835938 141.773438 C 328.152344 141.773438 327.117188 141.339844 326.820312 139.675781 C 326.628906 138.636719 326.628906 137.027344 326.628906 135.992188 C 326.628906 134.875 326.628906 133.726562 326.765625 132.800781 C 327.089844 130.726562 328.398438 130.5625 328.835938 130.5625 C 329.40625 130.5625 330.550781 130.890625 330.878906 132.609375 C 331.070312 133.589844 331.070312 134.902344 331.070312 135.992188 C 331.070312 137.300781 331.070312 138.472656 330.878906 139.59375 C 330.605469 141.257812 329.625 141.773438 328.835938 141.773438 Z M 328.835938 141.773438 "
       style=" stroke:none;fill-rule:nonzero;fill:rgb(0%,0%,0%);fill-opacity:1;" />
    <path
       id="path54740"
       d="M 336.515625 140.847656 C 336.515625 140.355469 336.105469 139.921875 335.617188 139.921875 C 335.097656 139.921875 334.6875 140.355469 334.6875 140.847656 C 334.6875 141.367188 335.097656 141.773438 335.617188 141.773438 C 336.105469 141.773438 336.515625 141.367188 336.515625 140.847656 Z M 336.515625 140.847656 "
       style=" stroke:none;fill-rule:nonzero;fill:rgb(0%,0%,0%);fill-opacity:1;" />
    <path
       id="path54742"
       d="M 340.308594 136.074219 L 340.308594 135.636719 C 340.308594 131.246094 342.460938 130.617188 343.359375 130.617188 C 343.769531 130.617188 344.503906 130.726562 344.886719 131.328125 C 344.613281 131.328125 343.933594 131.328125 343.933594 132.089844 C 343.933594 132.636719 344.339844 132.910156 344.722656 132.910156 C 344.996094 132.910156 345.539062 132.746094 345.539062 132.0625 C 345.539062 131.027344 344.777344 130.183594 343.332031 130.183594 C 341.097656 130.183594 338.753906 132.417969 338.753906 136.265625 C 338.753906 140.929688 340.769531 142.15625 342.378906 142.15625 C 344.3125 142.15625 345.976562 140.519531 345.976562 138.230469 C 345.976562 136.019531 344.421875 134.355469 342.488281 134.355469 C 341.316406 134.355469 340.660156 135.226562 340.308594 136.074219 Z M 342.378906 141.664062 C 341.289062 141.664062 340.769531 140.628906 340.660156 140.355469 C 340.335938 139.539062 340.335938 138.148438 340.335938 137.847656 C 340.335938 136.484375 340.90625 134.738281 342.460938 134.738281 C 342.761719 134.738281 343.550781 134.738281 344.09375 135.828125 C 344.394531 136.457031 344.394531 137.355469 344.394531 138.203125 C 344.394531 139.046875 344.394531 139.921875 344.09375 140.546875 C 343.578125 141.582031 342.789062 141.664062 342.378906 141.664062 Z M 342.378906 141.664062 "
       style=" stroke:none;fill-rule:nonzero;fill:rgb(0%,0%,0%);fill-opacity:1;" />
    <path
       id="path54744"
       d="M 332.488281 83.273438 C 332.488281 81.882812 332.40625 80.492188 331.804688 79.207031 C 331.015625 77.515625 329.570312 77.246094 328.863281 77.246094 C 327.800781 77.246094 326.546875 77.707031 325.808594 79.316406 C 325.265625 80.519531 325.183594 81.882812 325.183594 83.273438 C 325.183594 84.582031 325.238281 86.136719 325.972656 87.472656 C 326.710938 88.863281 327.992188 89.21875 328.835938 89.21875 C 329.761719 89.21875 331.097656 88.863281 331.859375 87.199219 C 332.40625 86 332.488281 84.636719 332.488281 83.273438 Z M 328.835938 88.835938 C 328.152344 88.835938 327.117188 88.402344 326.820312 86.738281 C 326.628906 85.699219 326.628906 84.089844 326.628906 83.054688 C 326.628906 81.9375 326.628906 80.789062 326.765625 79.863281 C 327.089844 77.789062 328.398438 77.625 328.835938 77.625 C 329.40625 77.625 330.550781 77.953125 330.878906 79.671875 C 331.070312 80.652344 331.070312 81.964844 331.070312 83.054688 C 331.070312 84.363281 331.070312 85.535156 330.878906 86.65625 C 330.605469 88.320312 329.625 88.835938 328.835938 88.835938 Z M 328.835938 88.835938 "
       style=" stroke:none;fill-rule:nonzero;fill:rgb(0%,0%,0%);fill-opacity:1;" />
    <path
       id="path54746"
       d="M 336.515625 87.910156 C 336.515625 87.417969 336.105469 86.984375 335.617188 86.984375 C 335.097656 86.984375 334.6875 87.417969 334.6875 87.910156 C 334.6875 88.429688 335.097656 88.835938 335.617188 88.835938 C 336.105469 88.835938 336.515625 88.429688 336.515625 87.910156 Z M 336.515625 87.910156 "
       style=" stroke:none;fill-rule:nonzero;fill:rgb(0%,0%,0%);fill-opacity:1;" />
    <path
       id="path54748"
       d="M 340.851562 80.871094 C 340.0625 80.355469 339.980469 79.78125 339.980469 79.480469 C 339.980469 78.417969 341.125 77.679688 342.351562 77.679688 C 343.605469 77.679688 344.722656 78.582031 344.722656 79.835938 C 344.722656 80.84375 344.039062 81.664062 343.003906 82.261719 Z M 343.386719 82.535156 C 344.640625 81.882812 345.484375 80.980469 345.484375 79.835938 C 345.484375 78.226562 343.960938 77.246094 342.378906 77.246094 C 340.632812 77.246094 339.21875 78.527344 339.21875 80.164062 C 339.21875 80.464844 339.246094 81.253906 339.980469 82.074219 C 340.171875 82.261719 340.824219 82.699219 341.261719 83 C 340.253906 83.519531 338.753906 84.472656 338.753906 86.21875 C 338.753906 88.046875 340.523438 89.21875 342.351562 89.21875 C 344.3125 89.21875 345.976562 87.773438 345.976562 85.917969 C 345.976562 85.292969 345.785156 84.5 345.105469 83.765625 C 344.777344 83.410156 344.503906 83.246094 343.386719 82.535156 Z M 341.644531 83.273438 L 343.796875 84.636719 C 344.285156 84.964844 345.105469 85.480469 345.105469 86.546875 C 345.105469 87.828125 343.796875 88.726562 342.378906 88.726562 C 340.878906 88.726562 339.625 87.664062 339.625 86.21875 C 339.625 85.210938 340.171875 84.089844 341.644531 83.273438 Z M 341.644531 83.273438 "
       style=" stroke:none;fill-rule:nonzero;fill:rgb(0%,0%,0%);fill-opacity:1;" />
    <path
       id="path54750"
       d="M 329.625 24.769531 C 329.625 24.335938 329.625 24.308594 329.21875 24.308594 C 328.128906 25.425781 326.601562 25.425781 326.054688 25.425781 L 326.054688 25.972656 C 326.410156 25.972656 327.417969 25.972656 328.316406 25.507812 L 328.316406 34.535156 C 328.316406 35.164062 328.261719 35.355469 326.710938 35.355469 L 326.164062 35.355469 L 326.164062 35.898438 C 326.765625 35.84375 328.261719 35.84375 328.972656 35.84375 C 329.652344 35.84375 331.179688 35.84375 331.777344 35.898438 L 331.777344 35.355469 L 331.234375 35.355469 C 329.652344 35.355469 329.625 35.164062 329.625 34.535156 Z M 329.625 24.769531 "
       style=" stroke:none;fill-rule:nonzero;fill:rgb(0%,0%,0%);fill-opacity:1;" />
    <path
       id="path54752"
       d="M 336.515625 34.972656 C 336.515625 34.480469 336.105469 34.046875 335.617188 34.046875 C 335.097656 34.046875 334.6875 34.480469 334.6875 34.972656 C 334.6875 35.492188 335.097656 35.898438 335.617188 35.898438 C 336.105469 35.898438 336.515625 35.492188 336.515625 34.972656 Z M 336.515625 34.972656 "
       style=" stroke:none;fill-rule:nonzero;fill:rgb(0%,0%,0%);fill-opacity:1;" />
    <path
       id="path54754"
       d="M 346.003906 30.335938 C 346.003906 28.945312 345.921875 27.554688 345.320312 26.269531 C 344.53125 24.578125 343.085938 24.308594 342.378906 24.308594 C 341.316406 24.308594 340.0625 24.769531 339.324219 26.378906 C 338.78125 27.582031 338.699219 28.945312 338.699219 30.335938 C 338.699219 31.644531 338.753906 33.199219 339.488281 34.535156 C 340.226562 35.925781 341.507812 36.28125 342.351562 36.28125 C 343.277344 36.28125 344.613281 35.925781 345.375 34.261719 C 345.921875 33.0625 346.003906 31.699219 346.003906 30.335938 Z M 342.351562 35.898438 C 341.667969 35.898438 340.632812 35.464844 340.335938 33.800781 C 340.144531 32.761719 340.144531 31.152344 340.144531 30.117188 C 340.144531 29 340.144531 27.851562 340.28125 26.925781 C 340.605469 24.851562 341.914062 24.6875 342.351562 24.6875 C 342.921875 24.6875 344.066406 25.015625 344.394531 26.734375 C 344.585938 27.71875 344.585938 29.027344 344.585938 30.117188 C 344.585938 31.425781 344.585938 32.601562 344.394531 33.71875 C 344.121094 35.382812 343.140625 35.898438 342.351562 35.898438 Z M 342.351562 35.898438 "
       style=" stroke:none;fill-rule:nonzero;fill:rgb(0%,0%,0%);fill-opacity:1;" />
    <g
       id="g54756"
       clip-rule="nonzero"
       clip-path="url(#clip1)">
      <path
         id="path54758"
         transform="matrix(1.744186,0,0,-1.745781,63.231977,294.982801)"
         d="M 0.001375 0.0505616 L 0.684448 0.0505616 L 1.365281 0.0550366 L 2.048354 0.0550366 L 2.731427 0.0595117 L 3.410021 0.0595117 L 4.095333 0.0617492 L 4.778406 0.0617492 L 5.461479 0.0662243 L 6.142313 0.0662243 L 6.825385 0.0706994 L 7.508458 0.0706994 L 8.191531 0.0751745 L 8.872365 0.077412 L 9.555438 0.077412 L 10.923823 0.0863622 L 11.602417 0.0863622 L 13.653875 0.0975498 L 14.332469 0.0975498 L 16.383927 0.108738 L 17.062521 0.113213 L 18.430906 0.122163 L 19.1095 0.1244 L 21.160958 0.137826 L 21.841792 0.140063 L 22.524865 0.144538 L 23.207937 0.153488 L 23.89101 0.155726 L 24.571844 0.160201 L 25.254917 0.169151 L 26.621063 0.175864 L 27.301896 0.184814 L 27.984969 0.187051 L 29.353354 0.202714 L 30.031948 0.207189 L 32.083406 0.231802 L 32.762 0.238515 L 33.447313 0.24299 L 34.130385 0.254177 L 34.808979 0.26089 L 36.860438 0.285503 L 37.539031 0.296691 L 38.224344 0.305641 L 38.907417 0.316829 L 39.59049 0.323541 L 40.271323 0.336966 L 42.320542 0.370529 L 43.001375 0.383955 L 44.367521 0.40633 L 45.050594 0.421993 L 45.731427 0.433181 L 47.097573 0.464506 L 47.782885 0.477931 L 48.461479 0.491356 L 49.144552 0.511494 L 50.512938 0.54282 L 51.191531 0.562958 L 51.876844 0.57862 L 52.559917 0.598758 L 53.23851 0.616659 L 53.923823 0.636796 L 54.606896 0.661409 L 55.289969 0.67931 L 55.968563 0.703923 L 56.653875 0.721823 L 57.336948 0.746436 L 58.020021 0.773286 L 58.700854 0.797899 L 60.750073 0.878451 L 61.430906 0.907539 L 62.113979 0.934389 L 63.482365 0.99704 L 64.160958 1.028366 L 66.212417 1.13353 L 66.89101 1.16933 L 68.259396 1.245407 L 68.93799 1.285682 L 70.989448 1.413222 L 71.668042 1.46021 L 73.036427 1.554187 L 73.7195 1.60565 L 74.400333 1.657114 L 75.766479 1.766753 L 76.449552 1.824929 L 77.130385 1.883105 L 77.813458 1.941281 L 78.496531 2.003932 L 79.179604 2.071058 L 79.860438 2.135947 L 80.54351 2.203073 L 81.226583 2.274674 L 81.911896 2.348513 L 82.59049 2.422352 L 83.273563 2.500665 L 84.641948 2.664006 L 85.320542 2.75127 L 86.005854 2.836296 L 86.688927 2.925798 L 87.367521 3.019774 L 88.735906 3.21444 L 89.418979 3.319604 L 90.097573 3.427006 L 91.465958 3.644047 L 92.149031 3.762637 L 92.829865 3.883464 L 93.512938 4.004291 L 94.879083 4.261608 L 95.559917 4.398097 L 96.24299 4.534587 L 96.926063 4.680027 L 97.611375 4.827705 L 98.289969 4.979857 L 98.973042 5.136485 L 99.656115 5.297588 L 100.341427 5.465403 L 101.020021 5.637693 L 101.703094 5.812221 L 102.388406 5.993462 L 103.067 6.179177 L 103.750073 6.376081 L 104.435385 6.575222 L 105.118458 6.7766 L 105.797052 6.989166 L 106.482365 7.20397 L 107.165438 7.429961 L 107.84851 7.660427 L 108.529344 7.895369 L 109.212417 8.137023 L 110.578563 8.644944 L 111.259396 8.911211 L 111.942469 9.184191 L 112.625542 9.46612 L 113.308615 9.754763 L 113.989448 10.050118 L 114.672521 10.35666 L 115.355594 10.667678 L 116.040906 10.992121 L 116.7195 11.325514 L 117.402573 11.663383 L 118.087885 12.012438 L 118.770958 12.370444 L 119.449552 12.741876 L 120.132625 13.122257 L 120.817938 13.511589 L 121.496531 13.90987 L 122.179604 14.321577 L 122.864917 14.742235 L 123.54799 15.176317 L 124.226583 15.617112 L 124.911896 16.073569 L 125.594969 16.543452 L 126.278042 17.020048 L 126.958875 17.507831 L 127.641948 18.011277 L 128.325021 18.528148 L 129.008094 19.05397 L 129.688927 19.593216 L 130.372 20.148126 L 131.055073 20.714223 L 131.738146 21.29822 L 132.418979 21.891168 L 133.102052 22.499778 L 133.785125 23.117338 L 134.470438 23.755037 L 135.149031 24.401685 L 135.832104 25.066234 L 136.517417 25.746445 L 137.19601 26.437844 L 137.879083 27.149381 L 138.564396 27.867631 L 139.247469 28.606019 L 139.926063 29.355594 L 140.611375 30.120832 L 141.294448 30.906207 L 141.977521 31.702771 L 142.656115 32.512759 L 143.341427 33.340648 L 144.0245 34.179725 L 144.707573 35.03894 L 145.388406 35.907104 L 146.071479 36.793169 L 146.754552 37.692659 L 147.437625 38.61005 L 148.118458 39.538628 L 148.801531 40.485106 L 149.484604 41.44501 L 150.169917 42.413864 L 150.84851 43.402856 L 151.531583 44.403035 L 152.214656 45.418877 L 152.89549 46.441432 L 153.578563 47.47965 L 154.261635 48.535767 L 154.946948 49.598598 L 155.625542 50.672616 L 156.308615 51.762297 L 156.993927 52.85869 L 157.677 53.968509 L 158.355594 55.089515 L 159.040906 56.219472 L 159.723979 57.360616 L 160.407052 58.503998 L 161.087885 59.660805 L 161.770958 60.824325 L 162.454031 61.996795 L 163.137104 63.175977 L 163.817938 64.359634 L 164.50101 65.550005 L 165.184083 66.747087 L 165.867156 67.946407 L 166.54799 69.15244 L 167.231063 70.356236 L 167.914135 71.566744 L 168.599448 72.781727 L 169.278042 73.99671 L 170.646427 76.417725 L 171.325021 77.628233 L 172.693406 80.058199 L 173.376479 81.268707 L 174.055073 82.476978 L 175.423458 84.882331 L 176.106531 86.079414 L 176.785125 87.265309 L 177.470438 88.453441 L 178.15351 89.628148 L 178.836583 90.800618 L 179.517417 91.964138 L 180.20049 93.120945 L 180.883562 94.268802 L 181.566635 95.405471 L 182.247469 96.539903 L 182.930542 97.656434 L 183.613615 98.761778 L 184.296688 99.862646 L 184.977521 100.956802 L 185.660594 102.028583 L 186.343667 103.089176 L 187.0245 104.145293 L 187.707573 105.183511 L 188.390646 106.210541 L 189.075958 107.226383 L 189.754552 108.222087 L 190.437625 109.211079 L 191.122938 110.179933 L 191.80601 111.139836 L 192.484604 112.086315 L 193.169917 113.012656 L 193.85299 113.930046 L 194.536063 114.827299 L 195.214656 115.711126 L 195.899969 116.586003 L 196.583042 117.440743 L 197.266115 118.28877 L 197.946948 119.114421 L 198.630021 119.926647 L 199.313094 120.718736 L 199.996167 121.504111 L 200.677 122.264874 L 201.360073 123.018924 L 202.043146 123.755074 L 202.728458 124.484512 L 203.407052 125.184861 L 204.090125 125.882973 L 204.775438 126.554234 L 205.454031 127.223258 L 206.137104 127.867669 L 206.820177 128.50313 L 207.50549 129.12964 L 208.184083 129.73825 L 208.867156 130.32896 L 209.552469 130.915195 L 210.235542 131.472342 L 210.914135 132.031727 L 211.599448 132.575448 L 212.282521 133.10127 L 212.965594 133.613666 L 213.646427 134.110399 L 214.3295 134.60937 L 215.012573 135.079253 L 215.695646 135.551373 L 216.376479 136.001119 L 217.059552 136.453101 L 217.742625 136.882708 L 218.425698 137.307841 L 219.106531 137.719548 L 220.472677 138.500448 L 221.15351 138.876355 L 221.836583 139.250023 L 222.519656 139.610267 L 223.204969 139.957085 L 223.883563 140.297191 L 224.566635 140.628347 L 225.251948 140.950552 L 225.935021 141.266045 L 226.613615 141.57035 L 227.296688 141.863468 L 227.982 142.15211 L 228.665073 142.43404 L 229.343667 142.707019 L 230.028979 142.973286 L 230.712052 143.230603 L 231.395125 143.481207 L 232.075958 143.727336 L 232.759031 143.962278 L 233.442104 144.192744 L 234.125177 144.414261 L 234.80601 144.629064 L 235.489083 144.843868 L 236.172156 145.047484 L 236.857469 145.246625 L 237.536063 145.436815 L 238.219135 145.624769 L 238.902208 145.808247 L 239.583042 145.980537 L 240.266115 146.152827 L 240.949188 146.320643 L 241.6345 146.483983 L 242.313094 146.636136 L 242.996167 146.788288 L 243.681479 146.938203 L 244.364552 147.081406 L 245.043146 147.217895 L 245.728458 147.356623 L 246.411531 147.488637 L 247.094604 147.61394 L 247.775438 147.734767 L 248.45851 147.855594 L 249.141583 147.971946 L 249.824656 148.08606 L 250.50549 148.191224 L 251.188563 148.300864 L 251.871635 148.399315 L 252.554708 148.500005 L 253.235542 148.593981 L 253.918615 148.687958 L 254.601688 148.777459 L 255.282521 148.866961 L 256.648667 149.039251 L 257.333979 149.11309 L 258.012573 149.195879 L 259.378719 149.343556 L 260.064031 149.415157 L 260.742625 149.480046 L 262.11101 149.614298 L 262.794083 149.672474 L 263.472677 149.7396 L 264.15799 149.797776 L 265.524135 149.907416 L 266.204969 149.956642 L 266.888042 150.01258 L 267.571115 150.061806 L 268.254188 150.108794 L 268.935021 150.155782 L 269.618094 150.202771 L 270.301167 150.245284 L 270.982 150.290035 L 271.665073 150.332548 L 273.031219 150.410862 L 273.712052 150.446662 L 274.395125 150.484701 L 275.76351 150.554064 L 276.442104 150.58539 L 277.81049 150.648041 L 278.493563 150.683841 L 279.172156 150.710692 L 279.857469 150.742017 L 280.540542 150.768868 L 281.223615 150.789006 L 281.902208 150.820331 L 283.953667 150.891932 L 284.6345 150.914308 L 285.317573 150.936683 L 286.683719 150.976959 L 287.364552 150.999334 L 288.047625 151.014997 L 288.730698 151.035135 L 289.411531 151.055273 L 290.777677 151.093311 L 291.46075 151.102261 L 292.141583 151.122399 L 292.824656 151.140299 L 294.193042 151.164912 L 294.871635 151.182812 L 296.923094 151.218613 L 297.601688 151.234276 L 298.287 151.243226 L 298.970073 151.258889 L 299.653146 151.270076 L 300.333979 151.276789 L 301.700125 151.301402 L 302.383198 151.308114 L 303.064031 151.32154 L 304.430177 151.337202 L 305.11101 151.34839 L 307.160229 151.370765 L 307.841063 151.379716 L 308.524135 151.390903 L 309.892521 151.397616 L 310.571115 151.411041 L 311.9395 151.417754 L 312.622573 151.426704 L 313.301167 151.433417 L 313.98424 151.437892 L 314.669552 151.444604 L 315.352625 151.449079 L 316.031219 151.453554 L 316.716531 151.458029 L 317.399604 151.464742 L 318.082677 151.469217 L 318.76351 151.473692 L 319.446583 151.480405 L 320.812729 151.489355 L 321.493563 151.491593 L 322.176635 151.496068 L 322.859708 151.496068 L 323.540542 151.500543 L 324.223615 151.507255 L 324.906688 151.507255 L 325.58976 151.51173 L 326.270594 151.516205 L 326.953667 151.516205 L 327.63674 151.520681 L 328.322052 151.520681 L 329.000646 151.527393 L 329.683719 151.531868 L 330.369031 151.531868 L 331.052104 151.536343 L 331.730698 151.538581 L 332.41601 151.538581 L 333.782156 151.547531 L 334.46075 151.552006 L 336.512208 151.552006 L 337.193042 151.554244 L 337.876115 151.554244 L 338.559188 151.558719 L 339.240021 151.563194 L 340.606167 151.563194 "
         style="fill:none;stroke-width:1.59404;stroke-linecap:butt;stroke-linejoin:miter;stroke:rgb(100%,0%,0%);stroke-opacity:1;stroke-miterlimit:10;" />
    </g>
    <path
       id="path54760"
       d="M 707.855469 281.882812 L 709.488281 281.882812 C 709.84375 281.882812 710.035156 281.882812 710.035156 281.527344 C 710.035156 281.335938 709.84375 281.335938 709.542969 281.335938 L 708.019531 281.335938 C 708.644531 278.855469 708.726562 278.527344 708.726562 278.417969 C 708.726562 278.117188 708.507812 277.953125 708.210938 277.953125 C 708.15625 277.953125 707.664062 277.953125 707.527344 278.582031 L 706.847656 281.335938 L 705.210938 281.335938 C 704.855469 281.335938 704.695312 281.335938 704.695312 281.664062 C 704.695312 281.882812 704.828125 281.882812 705.183594 281.882812 L 706.710938 281.882812 C 705.457031 286.820312 705.375 287.121094 705.375 287.417969 C 705.375 288.375 706.027344 289.027344 706.984375 289.027344 C 708.753906 289.027344 709.734375 286.492188 709.734375 286.355469 C 709.734375 286.164062 709.597656 286.164062 709.542969 286.164062 C 709.382812 286.164062 709.355469 286.21875 709.273438 286.410156 C 708.535156 288.238281 707.609375 288.648438 707.011719 288.648438 C 706.65625 288.648438 706.464844 288.429688 706.464844 287.855469 C 706.464844 287.417969 706.519531 287.308594 706.574219 287.011719 Z M 707.855469 281.882812 "
       style=" stroke:none;fill-rule:nonzero;fill:rgb(0%,0%,0%);fill-opacity:1;" />
  </g>
  <g
     id="g55509">
    <g
       id="g55549">
      <path
         id="path54774"
         transform="matrix(1.744186,0,0,-1.745781,63.231977,294.9828)"
         d="M -21.601646 143.241791 L 68.230281 143.241791 L 68.230281 161.121955 L -21.601646 161.121955 Z M -21.601646 143.241791 "
         style="fill-rule:nonzero;fill:rgb(100%, 100%, 100%);fill-opacity:1;stroke-width:0.3985;stroke-linecap:butt;stroke-linejoin:miter;stroke:rgb(0%, 0%, 0%);stroke-opacity:1;stroke-miterlimit:10" />
      <path
         id="path54776"
         transform="matrix(1.744186,0,0,-1.745781,32.159302,29.30991)"
         d="M 0.000489583 0.000754154 L 17.007885 0.000754154 "
         style="fill:none;stroke-width:1.59404;stroke-linecap:butt;stroke-linejoin:miter;stroke:rgb(100%, 0%, 0%);stroke-opacity:1;stroke-miterlimit:10" />
      <path
         id="path54790"
         d="M 123.617188 29.652344 C 123.890625 29.652344 124.214844 29.652344 124.214844 29.324219 C 124.214844 28.96875 123.890625 28.96875 123.644531 28.96875 L 113.234375 28.96875 C 112.988281 28.96875 112.660156 28.96875 112.660156 29.324219 C 112.660156 29.652344 112.988281 29.652344 113.234375 29.652344 Z M 123.644531 33.035156 C 123.890625 33.035156 124.214844 33.035156 124.214844 32.679688 C 124.214844 32.351562 123.890625 32.351562 123.617188 32.351562 L 113.234375 32.351562 C 112.988281 32.351562 112.660156 32.351562 112.660156 32.679688 C 112.660156 33.035156 112.988281 33.035156 113.234375 33.035156 Z M 123.644531 33.035156 "
         style="stroke:none;fill-rule:nonzero;fill:rgb(0%, 0%, 0%);fill-opacity:1" />
      <path
         id="path54792"
         d="M 152.382812 20.757812 C 152.382812 20.429688 152.382812 20.429688 152.027344 20.429688 C 151.238281 21.195312 150.148438 21.195312 149.65625 21.195312 L 149.65625 21.632812 C 149.929688 21.632812 150.746094 21.632812 151.402344 21.304688 L 151.402344 27.496094 C 151.402344 27.90625 151.402344 28.070312 150.203125 28.070312 L 149.738281 28.070312 L 149.738281 28.503906 C 149.957031 28.503906 151.457031 28.449219 151.890625 28.449219 C 152.273438 28.449219 153.800781 28.503906 154.074219 28.503906 L 154.074219 28.070312 L 153.609375 28.070312 C 152.382812 28.070312 152.382812 27.90625 152.382812 27.496094 Z M 152.382812 20.757812 "
         style="stroke:none;fill-rule:nonzero;fill:rgb(0%, 0%, 0%);fill-opacity:1" />
      <path
         id="path54794"
         transform="matrix(1.744186,0,0,-1.745781,132.1029,31.005063)"
         d="M -0.000770833 -0.00157477 L 22.56975 -0.00157477 "
         style="fill:none;stroke-width:0.398;stroke-linecap:butt;stroke-linejoin:miter;stroke:rgb(0%, 0%, 0%);stroke-opacity:1;stroke-miterlimit:10" />
      <path
         id="path54796"
         d="M 136.164062 33.605469 C 136.164062 33.277344 136.164062 33.277344 135.808594 33.277344 C 135.019531 34.039062 133.929688 34.039062 133.4375 34.039062 L 133.4375 34.476562 C 133.710938 34.476562 134.527344 34.476562 135.183594 34.148438 L 135.183594 40.339844 C 135.183594 40.75 135.183594 40.914062 133.984375 40.914062 L 133.519531 40.914062 L 133.519531 41.351562 C 133.738281 41.351562 135.238281 41.296875 135.671875 41.296875 C 136.054688 41.296875 137.582031 41.351562 137.851562 41.351562 L 137.851562 40.914062 L 137.390625 40.914062 C 136.164062 40.914062 136.164062 40.75 136.164062 40.339844 Z M 136.164062 33.605469 "
         style="stroke:none;fill-rule:nonzero;fill:rgb(0%, 0%, 0%);fill-opacity:1" />
      <path
         id="path54798"
         d="M 144.644531 38.59375 L 148.378906 38.59375 C 148.542969 38.59375 148.8125 38.59375 148.8125 38.324219 C 148.8125 37.996094 148.542969 37.996094 148.378906 37.996094 L 144.644531 37.996094 L 144.644531 34.257812 C 144.644531 34.121094 144.644531 33.820312 144.371094 33.820312 C 144.070312 33.820312 144.070312 34.09375 144.070312 34.257812 L 144.070312 37.996094 L 140.339844 37.996094 C 140.175781 37.996094 139.875 37.996094 139.875 38.296875 C 139.875 38.59375 140.148438 38.59375 140.339844 38.59375 L 144.070312 38.59375 L 144.070312 42.332031 C 144.070312 42.496094 144.070312 42.796875 144.34375 42.796875 C 144.644531 42.796875 144.644531 42.496094 144.644531 42.332031 Z M 144.644531 38.59375 "
         style="stroke:none;fill-rule:nonzero;fill:rgb(0%, 0%, 0%);fill-opacity:1" />
      <path
         id="path54800"
         d="M 152.421875 38.566406 C 152.75 38.566406 153.730469 38.539062 154.382812 38.324219 C 155.285156 37.996094 155.445312 37.421875 155.445312 37.066406 C 155.445312 36.386719 154.765625 35.976562 153.949219 35.976562 C 152.476562 35.976562 150.515625 37.09375 150.515625 39.195312 C 150.515625 40.421875 151.277344 41.460938 152.695312 41.460938 C 154.765625 41.460938 155.71875 40.257812 155.71875 40.097656 C 155.71875 40.015625 155.609375 39.878906 155.5 39.878906 C 155.445312 39.878906 155.417969 39.90625 155.3125 40.015625 C 154.355469 41.132812 152.941406 41.132812 152.722656 41.132812 C 151.984375 41.132812 151.496094 40.640625 151.496094 39.660156 C 151.496094 39.496094 151.496094 39.25 151.660156 38.566406 Z M 151.742188 38.242188 C 152.257812 36.46875 153.59375 36.332031 153.949219 36.332031 C 154.464844 36.332031 154.929688 36.605469 154.929688 37.066406 C 154.929688 38.242188 152.859375 38.242188 152.339844 38.242188 Z M 151.742188 38.242188 "
         style="stroke:none;fill-rule:nonzero;fill:rgb(0%, 0%, 0%);fill-opacity:1" />
      <path
         id="path54802"
         d="M 163.949219 35.933594 C 164.082031 35.933594 164.300781 35.933594 164.300781 35.6875 C 164.300781 35.445312 164.082031 35.445312 163.949219 35.445312 L 158.0625 35.445312 C 157.925781 35.445312 157.679688 35.445312 157.679688 35.6875 C 157.679688 35.933594 157.925781 35.933594 158.0625 35.933594 Z M 163.949219 35.933594 "
         style="stroke:none;fill-rule:nonzero;fill:rgb(0%, 0%, 0%);fill-opacity:1" />
      <path
         id="path54804"
         d="M 168.429688 34.515625 L 169.464844 34.515625 C 169.65625 34.515625 169.65625 34.515625 169.683594 34.460938 C 169.738281 34.433594 169.761719 34.324219 169.761719 34.269531 C 169.761719 34.132812 169.628906 34.132812 169.492188 34.132812 L 168.539062 34.132812 L 168.699219 33.398438 C 168.753906 33.179688 168.863281 32.769531 168.863281 32.714844 C 168.863281 32.578125 168.753906 32.414062 168.539062 32.414062 C 168.402344 32.414062 168.183594 32.523438 168.128906 32.742188 C 168.074219 32.90625 168.183594 32.496094 167.773438 34.132812 L 166.738281 34.132812 C 166.574219 34.132812 166.4375 34.132812 166.4375 34.351562 C 166.4375 34.515625 166.546875 34.515625 166.710938 34.515625 L 167.664062 34.515625 L 167.175781 36.5625 C 167.121094 36.753906 167.039062 37.027344 167.039062 37.132812 C 167.039062 37.625 167.5 37.980469 168.128906 37.980469 C 169.164062 37.980469 169.816406 36.78125 169.816406 36.617188 C 169.816406 36.507812 169.65625 36.507812 169.628906 36.507812 C 169.492188 36.507812 169.464844 36.535156 169.4375 36.644531 C 169.136719 37.269531 168.617188 37.679688 168.15625 37.679688 C 167.882812 37.679688 167.800781 37.460938 167.800781 37.214844 C 167.800781 37.082031 167.800781 37.054688 167.828125 36.972656 Z M 168.429688 34.515625 "
         style="stroke:none;fill-rule:nonzero;fill:rgb(0%, 0%, 0%);fill-opacity:1" />
      <g
         style="font-style:normal;font-variant:normal;font-weight:normal;font-stretch:normal;letter-spacing:normal;word-spacing:normal;text-anchor:start;fill:none;fill-opacity:1;fill-rule:evenodd;stroke:#000000;stroke-width:1.33823967;stroke-linecap:butt;stroke-linejoin:miter;stroke-miterlimit:10.43299961;stroke-dasharray:none;stroke-dashoffset:0;stroke-opacity:1"
         id="content"
         transform="matrix(0.35334263,0,0,-0.35334262,-81.028789,178.93647)"
         xml:space="preserve"
         stroke-miterlimit="10.433"
         font-style="normal"
         font-variant="normal"
         font-weight="normal"
         font-stretch="normal"
         font-size-adjust="none"
         letter-spacing="normal"
         word-spacing="normal"><path
           style="fill:#000000;stroke-width:0"
           inkscape:connector-curvature="0"
           d="m 481.33,424.78 0.07,0 0.07,0 0.07,0 0.08,0 0.09,0 0.09,0.01 0.09,0 0.09,0.01 0.1,0.01 0.1,0.02 0.1,0.02 0.11,0.02 0.1,0.02 0.1,0.03 0.1,0.03 0.1,0.04 0.1,0.04 0.1,0.05 0.09,0.05 0.09,0.06 0.08,0.07 0.08,0.07 0.04,0.04 0.04,0.04 0.03,0.04 0.04,0.05 0.03,0.04 0.03,0.05 0.03,0.05 0.03,0.05 0.03,0.05 0.02,0.06 0.02,0.06 0.02,0.06 0.02,0.06 0.02,0.06 0.01,0.07 0.01,0.07 0.01,0.07 0,0.08 0.01,0.07 0,0.08 c 0,1.19 -1.05,1.19 -1.94,1.19 l -11.36,0 c -7.53,0 -13.06,-8.22 -13.06,-14.14 0,-4.39 2.94,-7.88 7.47,-7.88 l 0.06,1.1 c -2.45,0 -4.44,1.79 -4.44,5.37 0,1.5 0.6,5.59 2.35,8.53 2.09,3.44 5.08,4.13 6.76,4.13 4.19,0 4.6,-3.28 4.6,-4.83 0,-2.34 -1,-6.42 -2.69,-8.97 -1.95,-2.94 -4.64,-4.23 -6.58,-4.23 l 0,0 -0.06,-1.1 c 5.89,0 12.51,6.03 12.51,13.71 0,0.84 0,3.23 -1.54,5.42 z"
           id="path55420" /><path
           style="fill:#000000;stroke-width:0"
           inkscape:connector-curvature="0"
           d="m 502.24,394.25 0,0.02 0,0.03 0,0.01 0,0.02 -0.01,0.01 0,0.02 -0.01,0.01 0,0.02 -0.01,0.02 -0.01,0.02 -0.01,0.02 -0.02,0.03 -0.01,0.02 -0.02,0.03 -0.02,0.03 -0.03,0.03 -0.02,0.03 -0.03,0.04 -0.02,0.02 -0.02,0.02 -0.01,0.02 -0.02,0.02 -0.02,0.02 -0.02,0.03 -0.02,0.02 -0.02,0.02 -0.03,0.03 -0.02,0.02 -0.03,0.03 -0.02,0.03 -0.03,0.03 -0.02,0.03 -0.03,0.03 -0.03,0.03 -0.03,0.03 -0.04,0.03 -0.03,0.04 -0.03,0.03 -0.04,0.04 -0.04,0.03 -0.03,0.04 -0.04,0.04 c -6.22,6.28 -7.81,15.69 -7.81,23.31 0,8.67 1.89,17.35 8.01,23.56 0.64,0.61 0.64,0.71 0.64,0.86 0,0.35 -0.19,0.49 -0.48,0.49 -0.5,0 -4.99,-3.38 -7.92,-9.7 -2.55,-5.49 -3.14,-11.02 -3.14,-15.21 0,-3.89 0.54,-9.9 3.28,-15.54 2.98,-6.13 7.28,-9.36 7.78,-9.36 0.29,0 0.48,0.14 0.48,0.5 z"
           id="path55422" /><path
           style="fill:#000000;stroke-width:0"
           inkscape:connector-curvature="0"
           d="m 515.34,426.12 4.69,0 c 0.98,0 1.48,0 1.48,1 0,0.55 -0.5,0.55 -1.39,0.55 l -4.39,0 c 1.8,7.08 2.05,8.08 2.05,8.37 0,0.85 -0.6,1.35 -1.44,1.35 -0.16,0 -1.55,-0.05 -2,-1.8 l -1.94,-7.92 -4.69,0 c -1,0 -1.5,0 -1.5,-0.94 0,-0.61 0.41,-0.61 1.41,-0.61 l 4.38,0 c -3.58,-14.14 -3.79,-14.98 -3.79,-15.89 0,-2.69 1.9,-4.58 4.58,-4.58 5.08,0 7.93,7.27 7.93,7.67 0,0.5 -0.4,0.5 -0.6,0.5 -0.45,0 -0.5,-0.15 -0.75,-0.7 -2.14,-5.17 -4.78,-6.37 -6.47,-6.37 -1.04,0 -1.54,0.65 -1.54,2.29 0,1.19 0.09,1.55 0.29,2.39 z"
           id="path55424" /><path
           style="fill:#000000;stroke-width:0"
           inkscape:connector-curvature="0"
           d="m 537.47,418.65 -0.01,0.37 0,0.39 -0.01,0.39 -0.01,0.41 -0.04,0.84 -0.06,0.88 -0.09,0.92 -0.1,0.95 -0.14,0.97 -0.16,1.01 -0.2,1.02 -0.23,1.03 -0.26,1.05 -0.31,1.06 -0.35,1.07 -0.39,1.07 -0.21,0.53 -0.23,0.53 -0.24,0.53 -0.25,0.53 c -2.98,6.12 -7.26,9.36 -7.76,9.36 -0.3,0 -0.5,-0.19 -0.5,-0.49 0,-0.15 0,-0.25 0.93,-1.15 4.9,-4.92 7.74,-12.85 7.74,-23.27 0,-8.51 -1.84,-17.28 -8.03,-23.56 -0.64,-0.59 -0.64,-0.7 -0.64,-0.84 0,-0.3 0.2,-0.5 0.5,-0.5 0.5,0 4.97,3.39 7.92,9.71 2.53,5.47 3.13,11 3.13,15.19 z"
           id="path55426" /></g>    </g>
    <g
       style="font-style:normal;font-variant:normal;font-weight:normal;font-stretch:normal;letter-spacing:normal;word-spacing:normal;text-anchor:start;fill:none;fill-opacity:1;fill-rule:evenodd;stroke:#000000;stroke-width:1.33823967;stroke-linecap:butt;stroke-linejoin:miter;stroke-miterlimit:10.43299961;stroke-dasharray:none;stroke-dashoffset:0;stroke-opacity:1"
       id="g55529"
       transform="matrix(0.35334263,0,0,-0.35334262,203.74892,158.88071)"
       xml:space="preserve"
       stroke-miterlimit="10.433"
       font-style="normal"
       font-variant="normal"
       font-weight="normal"
       font-stretch="normal"
       font-size-adjust="none"
       letter-spacing="normal"
       word-spacing="normal"><path
         style="fill:#000000;stroke-width:0"
         inkscape:connector-curvature="0"
         d="m 481.33,424.78 0.07,0 0.07,0 0.07,0 0.08,0 0.09,0 0.09,0.01 0.09,0 0.09,0.01 0.1,0.01 0.1,0.02 0.1,0.02 0.11,0.02 0.1,0.02 0.1,0.03 0.1,0.03 0.1,0.04 0.1,0.04 0.1,0.05 0.09,0.05 0.09,0.06 0.08,0.07 0.08,0.07 0.04,0.04 0.04,0.04 0.03,0.04 0.04,0.05 0.03,0.04 0.03,0.05 0.03,0.05 0.03,0.05 0.03,0.05 0.02,0.06 0.02,0.06 0.02,0.06 0.02,0.06 0.02,0.06 0.01,0.07 0.01,0.07 0.01,0.07 0,0.08 0.01,0.07 0,0.08 c 0,1.19 -1.05,1.19 -1.94,1.19 l -11.36,0 c -7.53,0 -13.06,-8.22 -13.06,-14.14 0,-4.39 2.94,-7.88 7.47,-7.88 l 0.06,1.1 c -2.45,0 -4.44,1.79 -4.44,5.37 0,1.5 0.6,5.59 2.35,8.53 2.09,3.44 5.08,4.13 6.76,4.13 4.19,0 4.6,-3.28 4.6,-4.83 0,-2.34 -1,-6.42 -2.69,-8.97 -1.95,-2.94 -4.64,-4.23 -6.58,-4.23 l 0,0 -0.06,-1.1 c 5.89,0 12.51,6.03 12.51,13.71 0,0.84 0,3.23 -1.54,5.42 z"
         id="path55531" /><path
         style="fill:#000000;stroke-width:0"
         inkscape:connector-curvature="0"
         d="m 502.24,394.25 0,0.02 0,0.03 0,0.01 0,0.02 -0.01,0.01 0,0.02 -0.01,0.01 0,0.02 -0.01,0.02 -0.01,0.02 -0.01,0.02 -0.02,0.03 -0.01,0.02 -0.02,0.03 -0.02,0.03 -0.03,0.03 -0.02,0.03 -0.03,0.04 -0.02,0.02 -0.02,0.02 -0.01,0.02 -0.02,0.02 -0.02,0.02 -0.02,0.03 -0.02,0.02 -0.02,0.02 -0.03,0.03 -0.02,0.02 -0.03,0.03 -0.02,0.03 -0.03,0.03 -0.02,0.03 -0.03,0.03 -0.03,0.03 -0.03,0.03 -0.04,0.03 -0.03,0.04 -0.03,0.03 -0.04,0.04 -0.04,0.03 -0.03,0.04 -0.04,0.04 c -6.22,6.28 -7.81,15.69 -7.81,23.31 0,8.67 1.89,17.35 8.01,23.56 0.64,0.61 0.64,0.71 0.64,0.86 0,0.35 -0.19,0.49 -0.48,0.49 -0.5,0 -4.99,-3.38 -7.92,-9.7 -2.55,-5.49 -3.14,-11.02 -3.14,-15.21 0,-3.89 0.54,-9.9 3.28,-15.54 2.98,-6.13 7.28,-9.36 7.78,-9.36 0.29,0 0.48,0.14 0.48,0.5 z"
         id="path55533" /><path
         style="fill:#000000;stroke-width:0"
         inkscape:connector-curvature="0"
         d="m 515.34,426.12 4.69,0 c 0.98,0 1.48,0 1.48,1 0,0.55 -0.5,0.55 -1.39,0.55 l -4.39,0 c 1.8,7.08 2.05,8.08 2.05,8.37 0,0.85 -0.6,1.35 -1.44,1.35 -0.16,0 -1.55,-0.05 -2,-1.8 l -1.94,-7.92 -4.69,0 c -1,0 -1.5,0 -1.5,-0.94 0,-0.61 0.41,-0.61 1.41,-0.61 l 4.38,0 c -3.58,-14.14 -3.79,-14.98 -3.79,-15.89 0,-2.69 1.9,-4.58 4.58,-4.58 5.08,0 7.93,7.27 7.93,7.67 0,0.5 -0.4,0.5 -0.6,0.5 -0.45,0 -0.5,-0.15 -0.75,-0.7 -2.14,-5.17 -4.78,-6.37 -6.47,-6.37 -1.04,0 -1.54,0.65 -1.54,2.29 0,1.19 0.09,1.55 0.29,2.39 z"
         id="path55535" /><path
         style="fill:#000000;stroke-width:0"
         inkscape:connector-curvature="0"
         d="m 537.47,418.65 -0.01,0.37 0,0.39 -0.01,0.39 -0.01,0.41 -0.04,0.84 -0.06,0.88 -0.09,0.92 -0.1,0.95 -0.14,0.97 -0.16,1.01 -0.2,1.02 -0.23,1.03 -0.26,1.05 -0.31,1.06 -0.35,1.07 -0.39,1.07 -0.21,0.53 -0.23,0.53 -0.24,0.53 -0.25,0.53 c -2.98,6.12 -7.26,9.36 -7.76,9.36 -0.3,0 -0.5,-0.19 -0.5,-0.49 0,-0.15 0,-0.25 0.93,-1.15 4.9,-4.92 7.74,-12.85 7.74,-23.27 0,-8.51 -1.84,-17.28 -8.03,-23.56 -0.64,-0.59 -0.64,-0.7 -0.64,-0.84 0,-0.3 0.2,-0.5 0.5,-0.5 0.5,0 4.97,3.39 7.92,9.71 2.53,5.47 3.13,11 3.13,15.19 z"
         id="path55537" /></g>  </g>
</svg>
